Amstelvar-Italic-opsz144.ufo
<glyph name="numbersign" format="2">
  <advance width="1230"/>
  <unicode hex="0023"/>
  <outline>
    <contour>
      <point x="82" y="484" type="line"/>
      <point x="123" y="619" type="line"/>
      <point x="1049" y="619" type="line"/>
      <point x="1008" y="484" type="line"/>
    </contour>
    <contour>
      <point x="181" y="864" type="line"/>
      <point x="222" y="999" type="line"/>
      <point x="1148" y="999" type="line"/>
      <point x="1107" y="864" type="line"/>
    </contour>
    <contour>
      <point x="174" y="15" type="line"/>
      <point x="688" y="1460" type="line"/>
      <point x="725" y="1448" type="line"/>
      <point x="211" y="3" type="line"/>
    </contour>
    <contour>
      <point x="546" y="22" type="line"/>
      <point x="1060" y="1467" type="line"/>
      <point x="1096" y="1456" type="line"/>
      <point x="582" y="11" type="line"/>
    </contour>
  </outline>
</glyph>
<glyph name="quotesingle" format="2">
  <advance width="543"/>
  <unicode hex="0027"/>
  <outline>
    <contour>
      <point x="290" y="964" type="line"/>
      <point x="304" y="1413" type="line" smooth="yes"/>
      <point x="306" y="1462"/>
      <point x="361" y="1558"/>
      <point x="424" y="1558" type="qcurve" smooth="yes"/>
      <point x="483" y="1558"/>
      <point x="521" y="1458"/>
      <point x="502" y="1413" type="qcurve" smooth="yes"/>
      <point x="314" y="964" type="line"/>
    </contour>
  </outline>
</glyph>
<glyph name="parenleft" format="2">
  <advance width="598"/>
  <unicode hex="0028"/>
  <outline>
    <contour>
      <point x="103" y="698" type="qcurve" smooth="yes"/>
      <point x="139" y="950"/>
      <point x="493" y="1427"/>
      <point x="668" y="1543" type="qcurve"/>
      <point x="686" y="1523" type="line"/>
      <point x="534" y="1385"/>
      <point x="312" y="937"/>
      <point x="278" y="700" type="qcurve" smooth="yes"/>
      <point x="245" y="465"/>
      <point x="337" y="4"/>
      <point x="446" y="-131" type="qcurve"/>
      <point x="423" y="-153" type="line"/>
      <point x="282" y="-37"/>
      <point x="67" y="437"/>
    </contour>
  </outline>
</glyph>
<glyph name="hyphen" format="2">
  <advance width="739"/>
  <unicode hex="002D"/>
  <outline>
    <contour>
      <point x="24" y="555" type="line"/>
      <point x="57" y="688" type="line"/>
      <point x="347" y="684" type="line"/>
      <point x="626" y="688" type="line"/>
      <point x="593" y="555" type="line"/>
      <point x="314" y="559" type="line"/>
    </contour>
  </outline>
</glyph>
<glyph name="slash" format="2">
  <advance width="558"/>
  <unicode hex="002F"/>
  <outline>
    <contour>
      <point x="-74" y="-130" type="line"/>
      <point x="540" y="1543" type="line"/>
      <point x="586" y="1528" type="line"/>
      <point x="-27" y="-146" type="line"/>
    </contour>
  </outline>
</glyph>
<glyph name="Z" format="2">
  <advance width="951"/>
  <unicode hex="005A"/>
  <outline>
    <contour>
      <point x="-105.0" y="0.0" type="line"/>
      <point x="-111.0" y="54.0" type="line"/>
      <point x="406.0" y="803.0" type="line"/>
      <point x="861.0" y="1462.0" type="line"/>
      <point x="854.0" y="1470.0" type="line"/>
      <point x="368.0" y="1470.0" type="line"/>
      <point x="174.0" y="1124.0" type="line"/>
      <point x="145.0" y="1124.0" type="line"/>
      <point x="223.0" y="1500.0" type="line"/>
      <point x="1045.0" y="1500.0" type="line"/>
      <point x="1035.0" y="1450.0" type="line"/>
      <point x="519.0" y="703.0" type="line"/>
      <point x="58.0" y="35.0" type="line"/>
      <point x="60.0" y="28.0" type="line"/>
      <point x="600.0" y="28.0" type="line"/>
      <point x="829.0" y="351.0" type="line"/>
      <point x="855.0" y="351.0" type="line"/>
      <point x="741.0" y="0.0" type="line"/>
    </contour>
  </outline>
</glyph>
<glyph name="k" format="2">
  <advance width="846"/>
  <unicode hex="006B"/>
  <outline>
    <contour>
      <point x="12" y="-12" type="line"/>
      <point x="8" y="56" type="line"/>
      <point x="122" y="585" type="line"/>
      <point x="280" y="1471" type="line"/>
      <point x="126" y="1471" type="line"/>
      <point x="136" y="1502" type="line"/>
      <point x="421" y="1580" type="line"/>
      <point x="444" y="1556" type="line"/>
      <point x="284" y="736" type="line"/>
      <point x="336" y="819"/>
      <point x="510" y="948"/>
      <point x="582" y="948" type="qcurve" smooth="yes"/>
      <point x="660" y="948"/>
      <point x="752" y="823"/>
      <point x="749" y="737" type="qcurve" smooth="yes"/>
      <point x="748" y="712" type="line"/>
      <point x="737" y="690" type="line"/>
      <point x="458" y="487" type="line"/>
      <point x="669" y="92" type="line"/>
      <point x="797" y="107" type="line"/>
      <point x="797" y="87" type="line"/>
      <point x="587" y="-6" type="line" smooth="yes"/>
      <point x="572" y="-13"/>
      <point x="557" y="-1"/>
      <point x="546" y="22" type="qcurve" smooth="yes"/>
      <point x="355" y="416" type="line"/>
      <point x="171" y="265" type="line"/>
      <point x="160" y="286" type="line"/>
      <point x="568" y="621" type="line"/>
      <point x="627" y="709"/>
      <point x="577" y="868"/>
      <point x="488" y="868" type="qcurve" smooth="yes"/>
      <point x="425" y="868"/>
      <point x="304" y="741"/>
      <point x="273" y="684" type="qcurve"/>
      <point x="251" y="579" type="line"/>
      <point x="160" y="88" type="line"/>
      <point x="169" y="16" type="line"/>
    </contour>
  </outline>
</glyph>
<glyph name="p" format="2">
  <advance width="917"/>
  <unicode hex="0070"/>
  <outline>
    <contour>
      <point x="-96" y="-472" type="line"/>
      <point x="110" y="511" type="line"/>
      <point x="158" y="823" type="line"/>
      <point x="151" y="892" type="line"/>
      <point x="294" y="961" type="line"/>
      <point x="308" y="947" type="line"/>
      <point x="279" y="745" type="line"/>
      <point x="360" y="821"/>
      <point x="566" y="938"/>
      <point x="645" y="938" type="qcurve" smooth="yes"/>
      <point x="748" y="938"/>
      <point x="837" y="787"/>
      <point x="837" y="732" type="qcurve" smooth="yes"/>
      <point x="837" y="425"/>
      <point x="486" y="44"/>
      <point x="269" y="44" type="qcurve" smooth="yes"/>
      <point x="234" y="44"/>
      <point x="171" y="61"/>
      <point x="146" y="76" type="qcurve"/>
      <point x="47" y="-445" type="line"/>
      <point x="182" y="-443" type="line"/>
      <point x="180" y="-460" type="line"/>
      <point x="-82" y="-497" type="line"/>
    </contour>
    <contour>
      <point x="156" y="109" type="line"/>
      <point x="174" y="93"/>
      <point x="232" y="74"/>
      <point x="280" y="74" type="qcurve" smooth="yes"/>
      <point x="445" y="74"/>
      <point x="697" y="475"/>
      <point x="697" y="696" type="qcurve" smooth="yes"/>
      <point x="697" y="771"/>
      <point x="637" y="870"/>
      <point x="568" y="870" type="qcurve" smooth="yes"/>
      <point x="499" y="870"/>
      <point x="341" y="776"/>
      <point x="273" y="714" type="qcurve"/>
      <point x="240" y="553" type="line"/>
    </contour>
  </outline>
</glyph>
<glyph name="q" format="2">
  <advance width="936"/>
  <unicode hex="0071"/>
  <outline>
    <contour>
      <point x="-18" y="273" type="qcurve" smooth="yes"/>
      <point x="-18" y="549"/>
      <point x="369" y="937"/>
      <point x="552" y="937" type="qcurve" smooth="yes"/>
      <point x="602" y="937"/>
      <point x="667" y="901"/>
      <point x="692" y="869" type="qcurve"/>
      <point x="757" y="940" type="line"/>
      <point x="775" y="940" type="line"/>
      <point x="823" y="855" type="line"/>
      <point x="733" y="412" type="line"/>
      <point x="537" y="-429" type="line"/>
      <point x="656" y="-432" type="line"/>
      <point x="651" y="-460" type="line"/>
      <point x="409" y="-478" type="line"/>
      <point x="393" y="-453" type="line"/>
      <point x="549" y="207" type="line"/>
      <point x="547" y="207" type="line"/>
      <point x="455" y="98"/>
      <point x="268" y="15"/>
      <point x="198" y="15" type="qcurve" smooth="yes"/>
      <point x="84" y="15"/>
      <point x="-18" y="164"/>
    </contour>
    <contour>
      <point x="123" y="275" type="qcurve" smooth="yes"/>
      <point x="123" y="194"/>
      <point x="182" y="72"/>
      <point x="252" y="72" type="qcurve" smooth="yes"/>
      <point x="374" y="72"/>
      <point x="573" y="290"/>
      <point x="609" y="483" type="qcurve" smooth="yes"/>
      <point x="675" y="836" type="line"/>
      <point x="666" y="864"/>
      <point x="597" y="900"/>
      <point x="532" y="900" type="qcurve" smooth="yes"/>
      <point x="374" y="900"/>
      <point x="123" y="513"/>
    </contour>
  </outline>
</glyph>
<glyph name="s" format="2">
  <advance width="730"/>
  <unicode hex="0073"/>
  <outline>
    <contour>
      <point x="-55" y="152" type="qcurve" smooth="yes"/>
      <point x="-55" y="204"/>
      <point x="13" y="258"/>
      <point x="62" y="258" type="qcurve" smooth="yes"/>
      <point x="70" y="258" type="line"/>
      <point x="70" y="177" type="line" smooth="yes"/>
      <point x="70" y="87"/>
      <point x="145" y="12"/>
      <point x="223" y="12" type="qcurve" smooth="yes"/>
      <point x="321" y="12"/>
      <point x="467" y="128"/>
      <point x="467" y="201" type="qcurve" smooth="yes"/>
      <point x="467" y="264"/>
      <point x="362" y="368"/>
      <point x="275" y="425" type="qcurve" smooth="yes"/>
      <point x="158" y="502"/>
      <point x="79" y="622"/>
      <point x="80" y="700" type="qcurve" smooth="yes"/>
      <point x="81" y="795"/>
      <point x="263" y="939"/>
      <point x="393" y="939" type="qcurve" smooth="yes"/>
      <point x="507" y="939"/>
      <point x="611" y="850"/>
      <point x="611" y="800" type="qcurve" smooth="yes"/>
      <point x="611" y="753"/>
      <point x="549" y="687"/>
      <point x="499" y="687" type="qcurve"/>
      <point x="489" y="702" type="line"/>
      <point x="489" y="800" type="line" smooth="yes"/>
      <point x="489" y="839"/>
      <point x="425" y="900"/>
      <point x="364" y="900" type="qcurve" smooth="yes"/>
      <point x="282" y="900"/>
      <point x="161" y="823"/>
      <point x="161" y="757" type="qcurve" smooth="yes"/>
      <point x="161" y="714"/>
      <point x="267" y="637"/>
      <point x="365" y="567" type="qcurve" smooth="yes"/>
      <point x="454" y="503"/>
      <point x="556" y="394"/>
      <point x="556" y="312" type="qcurve" smooth="yes"/>
      <point x="556" y="160"/>
      <point x="340" y="-10"/>
      <point x="199" y="-10" type="qcurve" smooth="yes"/>
      <point x="69" y="-10"/>
      <point x="-55" y="78"/>
    </contour>
  </outline>
</glyph>
<glyph name="sterling" format="2">
  <advance width="1098"/>
  <unicode hex="00A3"/>
  <outline>
    <contour>
      <point x="166" y="634" type="line"/>
      <point x="174" y="672" type="line"/>
      <point x="879" y="672" type="line"/>
      <point x="865" y="634" type="line"/>
    </contour>
    <contour>
      <point x="607" y="504" type="qcurve" smooth="yes"/>
      <point x="607" y="274"/>
      <point x="336" y="-17"/>
      <point x="129" y="-18" type="qcurve" smooth="yes"/>
      <point x="11" y="-19"/>
      <point x="-90" y="102"/>
      <point x="-78" y="196" type="qcurve" smooth="yes"/>
      <point x="-65" y="301"/>
      <point x="66" y="394"/>
      <point x="146" y="394" type="qcurve" smooth="yes"/>
      <point x="209" y="394"/>
      <point x="392" y="316"/>
      <point x="462" y="269" type="qcurve" smooth="yes"/>
      <point x="541" y="215"/>
      <point x="757" y="88"/>
      <point x="817" y="89" type="qcurve" smooth="yes"/>
      <point x="889" y="90"/>
      <point x="969" y="156"/>
      <point x="1014" y="212" type="qcurve"/>
      <point x="1043" y="195" type="line"/>
      <point x="1017" y="121"/>
      <point x="830" y="-11"/>
      <point x="769" y="-12" type="qcurve" smooth="yes"/>
      <point x="669" y="-13"/>
      <point x="464" y="120"/>
      <point x="381" y="173" type="qcurve" smooth="yes"/>
      <point x="316" y="215"/>
      <point x="169" y="286"/>
      <point x="109" y="286" type="qcurve" smooth="yes"/>
      <point x="53" y="286"/>
      <point x="-34" y="242"/>
      <point x="-41" y="184" type="qcurve" smooth="yes"/>
      <point x="-48" y="130"/>
      <point x="39" y="35"/>
      <point x="115" y="35" type="qcurve" smooth="yes"/>
      <point x="279" y="35"/>
      <point x="473" y="232"/>
      <point x="473" y="406" type="qcurve" smooth="yes"/>
      <point x="473" y="491"/>
      <point x="420" y="697"/>
      <point x="365" y="812" type="qcurve" smooth="yes"/>
      <point x="325" y="896"/>
      <point x="290" y="1066"/>
      <point x="310" y="1169" type="qcurve" smooth="yes"/>
      <point x="337" y="1307"/>
      <point x="567" y="1519"/>
      <point x="744" y="1521" type="qcurve" smooth="yes"/>
      <point x="872" y="1522"/>
      <point x="1028" y="1436"/>
      <point x="1075" y="1375" type="qcurve"/>
      <point x="1044" y="1341" type="line"/>
      <point x="1000" y="1403"/>
      <point x="867" y="1485"/>
      <point x="771" y="1484" type="qcurve" smooth="yes"/>
      <point x="661" y="1483"/>
      <point x="493" y="1339"/>
      <point x="474" y="1235" type="qcurve" smooth="yes"/>
      <point x="454" y="1129"/>
      <point x="484" y="959"/>
      <point x="521" y="876" type="qcurve" smooth="yes"/>
      <point x="565" y="777"/>
      <point x="607" y="588"/>
    </contour>
  </outline>
</glyph>
<glyph name="germandbls" format="2">
  <advance width="1061"/>
  <unicode hex="00DF"/>
  <outline>
    <contour>
      <point x="42" y="312" type="qcurve" smooth="yes"/>
      <point x="183" y="1170" type="line" smooth="yes"/>
      <point x="219" y="1389"/>
      <point x="398" y="1582"/>
      <point x="542" y="1582" type="qcurve" smooth="yes"/>
      <point x="668" y="1582"/>
      <point x="834" y="1439"/>
      <point x="834" y="1314" type="qcurve" smooth="yes"/>
      <point x="834" y="1195"/>
      <point x="697" y="983"/>
      <point x="653" y="930" type="qcurve" smooth="yes"/>
      <point x="618" y="888"/>
      <point x="572" y="827"/>
      <point x="572" y="777" type="qcurve" smooth="yes"/>
      <point x="572" y="726"/>
      <point x="662" y="628"/>
      <point x="751" y="567" type="qcurve" smooth="yes"/>
      <point x="842" y="505"/>
      <point x="942" y="394"/>
      <point x="942" y="312" type="qcurve" smooth="yes"/>
      <point x="942" y="160"/>
      <point x="726" y="-10"/>
      <point x="585" y="-10" type="qcurve" smooth="yes"/>
      <point x="455" y="-10"/>
      <point x="331" y="78"/>
      <point x="331" y="152" type="qcurve" smooth="yes"/>
      <point x="331" y="204"/>
      <point x="399" y="258"/>
      <point x="448" y="258" type="qcurve" smooth="yes"/>
      <point x="456" y="258" type="line"/>
      <point x="456" y="177" type="line" smooth="yes"/>
      <point x="456" y="87"/>
      <point x="531" y="12"/>
      <point x="609" y="12" type="qcurve" smooth="yes"/>
      <point x="707" y="12"/>
      <point x="853" y="128"/>
      <point x="853" y="201" type="qcurve" smooth="yes"/>
      <point x="853" y="264"/>
      <point x="749" y="369"/>
      <point x="661" y="425" type="qcurve" smooth="yes"/>
      <point x="546" y="499"/>
      <point x="465" y="626"/>
      <point x="465" y="694" type="qcurve" smooth="yes"/>
      <point x="465" y="779"/>
      <point x="592" y="922"/>
      <point x="618" y="952" type="qcurve" smooth="yes"/>
      <point x="682" y="1024"/>
      <point x="738" y="1184"/>
      <point x="738" y="1310" type="qcurve" smooth="yes"/>
      <point x="738" y="1427"/>
      <point x="634" y="1550"/>
      <point x="546" y="1550" type="qcurve" smooth="yes"/>
      <point x="474" y="1550"/>
      <point x="362" y="1373"/>
      <point x="320" y="1116" type="qcurve" smooth="yes"/>
      <point x="203" y="405" type="line" smooth="yes"/>
      <point x="152" y="98"/>
      <point x="-144" y="-395"/>
      <point x="-337" y="-395" type="qcurve"/>
      <point x="-497" y="-335" type="line"/>
      <point x="-485" y="-311" type="line"/>
      <point x="-354" y="-311" type="line" smooth="yes"/>
      <point x="-153" y="-311"/>
      <point x="-12" y="-17"/>
    </contour>
  </outline>
</glyph>
<glyph name="ae" format="2">
  <advance width="1416"/>
  <unicode hex="00E6"/>
  <outline>
    <contour>
      <point x="127" y="296" type="qcurve" smooth="yes"/>
      <point x="127" y="164"/>
      <point x="206" y="58"/>
      <point x="274" y="58" type="qcurve" smooth="yes"/>
      <point x="394" y="58"/>
      <point x="552" y="278"/>
      <point x="596" y="491" type="qcurve" smooth="yes"/>
      <point x="669" y="845" type="line"/>
      <point x="657" y="878"/>
      <point x="599" y="914"/>
      <point x="558" y="914" type="qcurve" smooth="yes"/>
      <point x="385" y="914"/>
      <point x="127" y="495"/>
    </contour>
    <contour>
      <point x="-16" y="259" type="qcurve" smooth="yes"/>
      <point x="-16" y="527"/>
      <point x="371" y="936"/>
      <point x="564" y="936" type="qcurve" smooth="yes"/>
      <point x="610" y="936"/>
      <point x="660" y="912"/>
      <point x="679" y="889" type="qcurve"/>
      <point x="757" y="954" type="line"/>
      <point x="776" y="954" type="line"/>
      <point x="822" y="854" type="line"/>
      <point x="863" y="888"/>
      <point x="991" y="938"/>
      <point x="1063" y="938" type="qcurve" smooth="yes"/>
      <point x="1180" y="938"/>
      <point x="1304" y="816"/>
      <point x="1304" y="716" type="qcurve" smooth="yes"/>
      <point x="1304" y="690"/>
      <point x="1296" y="635"/>
      <point x="1288" y="606" type="qcurve"/>
      <point x="1351" y="606" type="line"/>
      <point x="1341" y="572" type="line"/>
      <point x="1302" y="568"/>
      <point x="1138" y="567"/>
      <point x="1071" y="568" type="qcurve" smooth="yes"/>
      <point x="692" y="572" type="line"/>
      <point x="698" y="595" type="line"/>
      <point x="1143" y="602" type="line"/>
      <point x="1156" y="643"/>
      <point x="1171" y="721"/>
      <point x="1171" y="755" type="qcurve" smooth="yes"/>
      <point x="1171" y="822"/>
      <point x="1112" y="909"/>
      <point x="1049" y="909" type="qcurve" smooth="yes"/>
      <point x="950" y="909"/>
      <point x="776" y="681"/>
      <point x="731" y="485" type="qcurve" smooth="yes"/>
      <point x="695" y="329"/>
      <point x="737" y="81"/>
      <point x="857" y="70" type="qcurve" smooth="yes"/>
      <point x="969" y="60"/>
      <point x="1179" y="179"/>
      <point x="1256" y="301" type="qcurve"/>
      <point x="1271" y="286" type="line"/>
      <point x="1271" y="269" type="line"/>
      <point x="1200" y="160"/>
      <point x="973" y="-21"/>
      <point x="819" y="-8" type="qcurve" smooth="yes"/>
      <point x="701" y="2"/>
      <point x="577" y="168"/>
      <point x="582" y="283" type="qcurve"/>
      <point x="518" y="146"/>
      <point x="297" y="-5"/>
      <point x="179" y="-5" type="qcurve" smooth="yes"/>
      <point x="77" y="-5"/>
      <point x="-16" y="142"/>
    </contour>
  </outline>
</glyph>
<glyph name="eth" format="2">
  <advance width="955"/>
  <unicode hex="00F0"/>
  <outline>
    <contour>
      <point x="16" y="522" type="qcurve" smooth="yes"/>
      <point x="69" y="736"/>
      <point x="348" y="953"/>
      <point x="522" y="941" type="qcurve" smooth="yes"/>
      <point x="649" y="933"/>
      <point x="765" y="750"/>
      <point x="750" y="617" type="qcurve"/>
      <point x="701" y="624" type="line"/>
      <point x="712" y="741"/>
      <point x="632" y="902"/>
      <point x="511" y="910" type="qcurve" smooth="yes"/>
      <point x="386" y="918"/>
      <point x="226" y="705"/>
      <point x="176" y="527" type="qcurve" smooth="yes"/>
      <point x="119" y="324"/>
      <point x="161" y="35"/>
      <point x="291" y="23" type="qcurve" smooth="yes"/>
      <point x="432" y="11"/>
      <point x="597" y="291"/>
      <point x="663" y="534" type="qcurve" smooth="yes"/>
      <point x="780" y="962"/>
      <point x="745" y="1389"/>
      <point x="630" y="1429" type="qcurve" smooth="yes"/>
      <point x="516" y="1469"/>
      <point x="274" y="1367"/>
      <point x="209" y="1291" type="qcurve"/>
      <point x="189" y="1291" type="line"/>
      <point x="189" y="1311" type="line"/>
      <point x="257" y="1409"/>
      <point x="529" y="1551"/>
      <point x="676" y="1510" type="qcurve" smooth="yes"/>
      <point x="849" y="1462"/>
      <point x="929" y="990"/>
      <point x="829" y="577" type="qcurve" smooth="yes"/>
      <point x="755" y="271"/>
      <point x="450" y="-24"/>
      <point x="287" y="-10" type="qcurve" smooth="yes"/>
      <point x="129" y="4"/>
      <point x="-38" y="306"/>
    </contour>
    <contour>
      <point x="748" y="1372" type="line"/>
      <point x="974" y="1538" type="line"/>
      <point x="1006" y="1487" type="line"/>
      <point x="773" y="1345" type="line"/>
      <point x="481" y="1133" type="line"/>
      <point x="440" y="1182" type="line"/>
    </contour>
  </outline>
</glyph>
<glyph name="idotless" format="2">
  <advance width="468"/>
  <unicode hex="0131"/>
  <outline>
    <contour>
      <point x="55" y="-14" type="line"/>
      <point x="6" y="61" type="line"/>
      <point x="121" y="547" type="line"/>
      <point x="168" y="833" type="line"/>
      <point x="22" y="851" type="line"/>
      <point x="25" y="872" type="line"/>
      <point x="305" y="922" type="line"/>
      <point x="332" y="908" type="line"/>
      <point x="317" y="840" type="line"/>
      <point x="280" y="665" type="line"/>
      <point x="161" y="84" type="line"/>
      <point x="338" y="102" type="line"/>
      <point x="338" y="82" type="line"/>
    </contour>
  </outline>
</glyph>
<glyph name="oe" format="2">
  <advance width="1460"/>
  <unicode hex="0153"/>
  <outline>
    <contour>
      <point x="16" y="522" type="qcurve" smooth="yes"/>
      <point x="69" y="736"/>
      <point x="348" y="955"/>
      <point x="522" y="941" type="qcurve" smooth="yes"/>
      <point x="612" y="934"/>
      <point x="738" y="839"/>
      <point x="772" y="768" type="qcurve"/>
      <point x="837" y="844"/>
      <point x="1010" y="938"/>
      <point x="1107" y="938" type="qcurve" smooth="yes"/>
      <point x="1224" y="938"/>
      <point x="1348" y="816"/>
      <point x="1348" y="716" type="qcurve" smooth="yes"/>
      <point x="1348" y="690"/>
      <point x="1340" y="635"/>
      <point x="1332" y="606" type="qcurve"/>
      <point x="1395" y="606" type="line"/>
      <point x="1385" y="572" type="line"/>
      <point x="1346" y="568"/>
      <point x="1182" y="567"/>
      <point x="1115" y="568" type="qcurve" smooth="yes"/>
      <point x="736" y="572" type="line"/>
      <point x="742" y="595" type="line"/>
      <point x="1187" y="602" type="line"/>
      <point x="1200" y="643"/>
      <point x="1215" y="721"/>
      <point x="1215" y="755" type="qcurve" smooth="yes"/>
      <point x="1215" y="822"/>
      <point x="1156" y="909"/>
      <point x="1093" y="909" type="qcurve" smooth="yes"/>
      <point x="994" y="909"/>
      <point x="820" y="681"/>
      <point x="775" y="485" type="qcurve" smooth="yes"/>
      <point x="739" y="329"/>
      <point x="781" y="81"/>
      <point x="901" y="70" type="qcurve" smooth="yes"/>
      <point x="1013" y="60"/>
      <point x="1223" y="179"/>
      <point x="1300" y="301" type="qcurve"/>
      <point x="1315" y="286" type="line"/>
      <point x="1315" y="269" type="line"/>
      <point x="1244" y="160"/>
      <point x="1017" y="-20"/>
      <point x="863" y="-8" type="qcurve" smooth="yes"/>
      <point x="788" y="-2"/>
      <point x="678" y="74"/>
      <point x="647" y="136" type="qcurve"/>
      <point x="575" y="53"/>
      <point x="389" y="-22"/>
      <point x="287" y="-10" type="qcurve" smooth="yes"/>
      <point x="129" y="8"/>
      <point x="-38" y="306"/>
    </contour>
    <contour>
      <point x="176" y="527" type="qcurve" smooth="yes"/>
      <point x="119" y="324"/>
      <point x="161" y="38"/>
      <point x="291" y="23" type="qcurve" smooth="yes"/>
      <point x="422" y="8"/>
      <point x="596" y="282"/>
      <point x="638" y="478" type="qcurve" smooth="yes"/>
      <point x="675" y="650"/>
      <point x="641" y="899"/>
      <point x="511" y="910" type="qcurve" smooth="yes"/>
      <point x="386" y="921"/>
      <point x="226" y="705"/>
    </contour>
  </outline>
</glyph>
<glyph name="Schwa" format="2">
  <advance width="1219"/>
  <unicode hex="018F"/>
  <outline>
    <contour>
      <point x="185" y="1242" type="line"/>
      <point x="306" y="1407"/>
      <point x="619" y="1544"/>
      <point x="810" y="1519" type="qcurve" smooth="yes"/>
      <point x="1063" y="1488"/>
      <point x="1227" y="995"/>
      <point x="1145" y="684" type="qcurve" smooth="yes"/>
      <point x="1046" y="306"/>
      <point x="542" y="-47"/>
      <point x="296" y="-19" type="qcurve" smooth="yes"/>
      <point x="153" y="-3"/>
      <point x="-6" y="165"/>
      <point x="-6" y="282" type="qcurve" smooth="yes"/>
      <point x="-6" y="314"/>
      <point x="3" y="382"/>
      <point x="16" y="426" type="qcurve"/>
      <point x="41" y="441" type="line"/>
      <point x="904" y="437" type="line"/>
      <point x="923" y="479"/>
      <point x="968" y="622"/>
      <point x="981" y="678" type="qcurve" smooth="yes"/>
      <point x="1052" y="974"/>
      <point x="983" y="1417"/>
      <point x="776" y="1449" type="qcurve" smooth="yes"/>
      <point x="585" y="1479"/>
      <point x="297" y="1344"/>
      <point x="205" y="1200" type="qcurve"/>
      <point x="187" y="1213" type="line"/>
    </contour>
    <contour>
      <point x="378" y="65" type="qcurve" smooth="yes"/>
      <point x="523" y="50"/>
      <point x="773" y="180"/>
      <point x="880" y="387" type="qcurve"/>
      <point x="479" y="384" type="line"/>
      <point x="222" y="375" type="line" smooth="yes"/>
      <point x="169" y="373"/>
      <point x="127" y="302"/>
      <point x="144" y="240" type="qcurve" smooth="yes"/>
      <point x="164" y="167"/>
      <point x="280" y="75"/>
    </contour>
  </outline>
</glyph>
<glyph name="florin" format="2">
  <advance width="644"/>
  <unicode hex="0192"/>
  <outline>
    <contour>
      <point x="331" y="386.0" type="line" smooth="yes"/>
      <point x="255" y="-12.0"/>
      <point x="41" y="-290.0"/>
      <point x="-100" y="-290.0" type="qcurve" smooth="yes"/>
      <point x="-110" y="-290.0"/>
      <point x="-137" y="-288.0"/>
      <point x="-145" y="-287.0" type="qcurve" smooth="yes"/>
      <point x="-164" y="-285.0" type="line"/>
      <point x="-177" y="-232.0" type="line"/>
      <point x="-158" y="-232.0" type="line"/>
      <point x="-151" y="-244.0"/>
      <point x="-132" y="-252.0"/>
      <point x="-110" y="-252.0" type="qcurve" smooth="yes"/>
      <point x="-29" y="-252.0"/>
      <point x="111" y="-39.0"/>
      <point x="182" y="378.0" type="qcurve" smooth="yes"/>
      <point x="254" y="806.0" type="line"/>
      <point x="106" y="816.0" type="line"/>
      <point x="105" y="847.0" type="line"/>
      <point x="265" y="870.0" type="line"/>
      <point x="314" y="1111.0" type="line" smooth="yes"/>
      <point x="356" y="1314.0"/>
      <point x="532" y="1524.0"/>
      <point x="655" y="1524.0" type="qcurve" smooth="yes"/>
      <point x="664" y="1524.0"/>
      <point x="683" y="1523.0"/>
      <point x="693" y="1522.0" type="qcurve" smooth="yes"/>
      <point x="714" y="1520.0" type="line"/>
      <point x="725" y="1464.0" type="line"/>
      <point x="710" y="1462.0" type="line"/>
      <point x="696" y="1476.0"/>
      <point x="665" y="1491.0"/>
      <point x="653" y="1491.0" type="qcurve" smooth="yes"/>
      <point x="584" y="1491.0"/>
      <point x="492" y="1314.0"/>
      <point x="451" y="1057.0" type="qcurve" smooth="yes"/>
      <point x="422" y="863.0" type="line"/>
      <point x="608" y="863.0" type="line"/>
      <point x="602" y="834.0" type="line"/>
      <point x="412" y="807.0" type="line"/>
    </contour>
  </outline>
</glyph>
<glyph name="jdotless" format="2">
  <advance width="494"/>
  <unicode hex="0237"/>
  <outline>
    <contour>
      <point x="189" y="824" type="qcurve"/>
      <point x="48" y="851" type="line"/>
      <point x="50" y="879" type="line"/>
      <point x="352" y="925" type="line"/>
      <point x="364" y="912" type="line"/>
      <point x="352" y="860" type="line"/>
      <point x="322" y="733" type="line"/>
      <point x="240" y="350" type="line"/>
      <point x="181" y="-6"/>
      <point x="-164" y="-479"/>
      <point x="-351" y="-479" type="qcurve"/>
      <point x="-521" y="-419" type="line"/>
      <point x="-509" y="-395" type="line"/>
      <point x="-388" y="-393" type="line" smooth="yes"/>
      <point x="-151" y="-389"/>
      <point x="29" y="-70"/>
      <point x="72" y="169" type="qcurve" smooth="yes"/>
      <point x="89" y="264"/>
      <point x="160" y="629"/>
    </contour>
  </outline>
</glyph>
<glyph name="ogonek" format="2">
  <advance width="896"/>
  <unicode hex="02DB"/>
  <outline>
    <contour>
      <point x="257" y="-206" type="qcurve" smooth="yes"/>
      <point x="254" y="-254"/>
      <point x="314" y="-316"/>
      <point x="363" y="-316" type="qcurve" smooth="yes"/>
      <point x="424" y="-316"/>
      <point x="518" y="-280"/>
      <point x="583" y="-225" type="qcurve"/>
      <point x="597" y="-240" type="line"/>
      <point x="550" y="-308"/>
      <point x="417" y="-406"/>
      <point x="341" y="-406" type="qcurve" smooth="yes"/>
      <point x="266" y="-407"/>
      <point x="158" y="-331"/>
      <point x="163" y="-255" type="qcurve" smooth="yes"/>
      <point x="168" y="-168"/>
      <point x="283" y="-39"/>
      <point x="359" y="9" type="qcurve" smooth="yes"/>
      <point x="388" y="27" type="line"/>
      <point x="406" y="7" type="line"/>
      <point x="392" y="-5" type="line" smooth="yes"/>
      <point x="308" y="-79"/>
      <point x="260" y="-161"/>
    </contour>
  </outline>
</glyph>
<glyph name="divisionslash" format="2">
  <advance width="558"/>
  <unicode hex="2215"/>
  <outline>
    <contour>
      <point x="-68" y="-130" type="line"/>
      <point x="546" y="1543" type="line"/>
      <point x="592" y="1528" type="line"/>
      <point x="-21" y="-146" type="line"/>
    </contour>
  </outline>
</glyph>
<glyph name="f_f_l" format="2">
  <advance width="1468"/>
  <unicode hex="FB04"/>
  <outline>
    <contour>
      <point x="-479" y="-419" type="line"/>
      <point x="-467" y="-395" type="line"/>
      <point x="-356" y="-395" type="line" smooth="yes"/>
      <point x="-155" y="-395"/>
      <point x="16" y="-103"/>
      <point x="81" y="312" type="qcurve" smooth="yes"/>
      <point x="167" y="852" type="line"/>
      <point x="169" y="857" type="line"/>
      <point x="209" y="1062" type="line" smooth="yes"/>
      <point x="254" y="1289"/>
      <point x="448" y="1506"/>
      <point x="576" y="1505" type="qcurve" smooth="yes"/>
      <point x="671" y="1504"/>
      <point x="742" y="1442"/>
      <point x="737" y="1391" type="qcurve" smooth="yes"/>
      <point x="733" y="1347"/>
      <point x="667" y="1304"/>
      <point x="614" y="1309" type="qcurve"/>
      <point x="621" y="1335"/>
      <point x="630" y="1387"/>
      <point x="631" y="1410" type="qcurve" smooth="yes"/>
      <point x="631" y="1437"/>
      <point x="607" y="1470"/>
      <point x="570" y="1470" type="qcurve" smooth="yes"/>
      <point x="509" y="1470"/>
      <point x="389" y="1296"/>
      <point x="344" y="1039" type="qcurve" smooth="yes"/>
      <point x="312" y="858" type="line"/>
      <point x="311" y="852" type="line"/>
      <point x="272" y="581" type="line" smooth="yes"/>
      <point x="190" y="24"/>
      <point x="-154" y="-479"/>
      <point x="-341" y="-479" type="qcurve"/>
    </contour>
    <contour>
      <point x="10" y="-322" type="line"/>
      <point x="23" y="-298" type="line"/>
      <point x="154" y="-298" type="line" smooth="yes"/>
      <point x="355" y="-298"/>
      <point x="522" y="-4"/>
      <point x="591" y="409" type="qcurve" smooth="yes"/>
      <point x="664" y="851" type="line"/>
      <point x="666" y="856" type="line"/>
      <point x="713" y="1107" type="line" smooth="yes"/>
      <point x="756" y="1335"/>
      <point x="932" y="1551"/>
      <point x="1060" y="1550" type="qcurve" smooth="yes"/>
      <point x="1155" y="1549"/>
      <point x="1226" y="1481"/>
      <point x="1221" y="1430" type="qcurve" smooth="yes"/>
      <point x="1217" y="1388"/>
      <point x="1149" y="1349"/>
      <point x="1098" y="1354" type="qcurve"/>
      <point x="1105" y="1379"/>
      <point x="1114" y="1432"/>
      <point x="1115" y="1455" type="qcurve" smooth="yes"/>
      <point x="1115" y="1482"/>
      <point x="1093" y="1515"/>
      <point x="1054" y="1515" type="qcurve" smooth="yes"/>
      <point x="993" y="1515"/>
      <point x="893" y="1341"/>
      <point x="848" y="1084" type="qcurve" smooth="yes"/>
      <point x="809" y="859" type="line"/>
      <point x="810" y="851" type="line"/>
      <point x="781" y="678" type="line" smooth="yes"/>
      <point x="687" y="119"/>
      <point x="355" y="-382"/>
      <point x="168" y="-382" type="qcurve"/>
    </contour>
    <contour>
      <point x="5" y="826" type="line"/>
      <point x="7" y="857" type="line"/>
      <point x="192" y="862" type="line"/>
      <point x="1200" y="875" type="line"/>
      <point x="1193" y="846" type="line"/>
      <point x="233" y="831" type="line"/>
      <point x="194" y="820" type="line"/>
    </contour>
    <contour>
      <point x="1034" y="-12" type="line"/>
      <point x="1005" y="21" type="line"/>
      <point x="1124" y="604" type="line"/>
      <point x="1267" y="1426" type="line"/>
      <point x="1147" y="1426" type="line"/>
      <point x="1158" y="1457" type="line"/>
      <point x="1411" y="1537" type="line"/>
      <point x="1432" y="1512" type="line"/>
      <point x="1251" y="588" type="line"/>
      <point x="1154" y="81" type="line"/>
      <point x="1344" y="107" type="line"/>
      <point x="1344" y="89" type="line"/>
    </contour>
  </outline>
</glyph>
<glyph name="brevecomb.case" format="2">
  <advance width="896"/>
  <outline>
    <contour>
      <point x="951" y="1851" type="qcurve"/>
      <point x="981" y="1837" type="line"/>
      <point x="935" y="1746"/>
      <point x="771" y="1618"/>
      <point x="668" y="1618" type="qcurve" smooth="yes"/>
      <point x="569" y="1618"/>
      <point x="432" y="1755"/>
      <point x="432" y="1850" type="qcurve"/>
      <point x="469" y="1864" type="line"/>
      <point x="487" y="1811"/>
      <point x="609" y="1727"/>
      <point x="684" y="1727" type="qcurve" smooth="yes"/>
      <point x="771" y="1727"/>
      <point x="918" y="1808"/>
    </contour>
  </outline>
</glyph>
<glyph name="caroncomb.case" format="2">
  <advance width="896"/>
  <outline>
    <contour>
      <point x="666" y="1618" type="qcurve" smooth="yes"/>
      <point x="638" y="1618"/>
      <point x="612" y="1663"/>
      <point x="597" y="1704" type="qcurve" smooth="yes"/>
      <point x="501" y="1941" type="line"/>
      <point x="519" y="1955" type="line"/>
      <point x="688" y="1752" type="line"/>
      <point x="963" y="1952" type="line"/>
      <point x="983" y="1935" type="line"/>
      <point x="768" y="1699" type="line" smooth="yes"/>
      <point x="729" y="1656"/>
      <point x="696" y="1618"/>
    </contour>
  </outline>
</glyph>
<glyph name="dblgravecomb.case" format="2">
  <advance width="896"/>
  <outline>
    <contour>
      <point x="329" y="1863" type="qcurve" smooth="yes"/>
      <point x="329" y="1892"/>
      <point x="368" y="1927"/>
      <point x="395" y="1927" type="qcurve" smooth="yes"/>
      <point x="415" y="1927"/>
      <point x="450" y="1902"/>
      <point x="462" y="1882" type="qcurve" smooth="yes"/>
      <point x="628" y="1605" type="line"/>
      <point x="606" y="1589" type="line"/>
      <point x="360" y="1797" type="line" smooth="yes"/>
      <point x="344" y="1811"/>
      <point x="329" y="1845"/>
    </contour>
    <contour>
      <point x="646" y="1863" type="qcurve" smooth="yes"/>
      <point x="646" y="1892"/>
      <point x="685" y="1927"/>
      <point x="712" y="1927" type="qcurve" smooth="yes"/>
      <point x="732" y="1927"/>
      <point x="767" y="1902"/>
      <point x="779" y="1882" type="qcurve" smooth="yes"/>
      <point x="945" y="1605" type="line"/>
      <point x="923" y="1589" type="line"/>
      <point x="677" y="1797" type="line" smooth="yes"/>
      <point x="661" y="1811"/>
      <point x="646" y="1845"/>
    </contour>
  </outline>
</glyph>
<glyph name="diagonalbarO" format="2">
  <advance width="623"/>
  <outline>
    <contour>
      <point x="-85" y="-107" type="line"/>
      <point x="-2" y="69" type="line"/>
      <point x="-2" y="69" type="line"/>
      <point x="338" y="813" type="line"/>
      <point x="373" y="791" type="line"/>
      <point x="34" y="42" type="line"/>
      <point x="34" y="42" type="line"/>
      <point x="-39" y="-117" type="line"/>
    </contour>
    <contour>
      <point x="695" y="1606" type="line"/>
      <point x="742" y="1606" type="line"/>
      <point x="652" y="1412" type="line"/>
      <point x="652" y="1411" type="line"/>
      <point x="373" y="791" type="line"/>
      <point x="338" y="813" type="line"/>
      <point x="613" y="1429" type="line"/>
      <point x="613" y="1429" type="line"/>
    </contour>
  </outline>
</glyph>
<glyph name="dollar.rvrn" format="2">
  <advance width="920"/>
  <outline>
    <contour>
      <point x="-39.0" y="164.0" type="qcurve"/>
      <point x="8.0" y="221.0" type="line"/>
      <point x="37.0" y="162.0"/>
      <point x="206" y="39"/>
      <point x="331" y="39" type="qcurve" smooth="yes"/>
      <point x="491" y="39"/>
      <point x="665" y="220"/>
      <point x="663" y="382" type="qcurve" smooth="yes"/>
      <point x="662" y="480"/>
      <point x="524.0" y="660.0"/>
      <point x="406.0" y="749.0" type="qcurve" smooth="yes"/>
      <point x="302.0" y="828.0"/>
      <point x="132" y="1034"/>
      <point x="132" y="1166" type="qcurve" smooth="yes"/>
      <point x="132" y="1328"/>
      <point x="341" y="1515"/>
      <point x="515" y="1515" type="qcurve" smooth="yes"/>
      <point x="660" y="1515"/>
      <point x="826" y="1409"/>
      <point x="860" y="1338" type="qcurve"/>
      <point x="811" y="1310" type="line"/>
      <point x="777" y="1374"/>
      <point x="622" y="1475"/>
      <point x="504" y="1475" type="qcurve" smooth="yes"/>
      <point x="389" y="1475"/>
      <point x="259" y="1357"/>
      <point x="259" y="1260" type="qcurve" smooth="yes"/>
      <point x="259" y="1161"/>
      <point x="401.0" y="952.0"/>
      <point x="520.0" y="863.0" type="qcurve" smooth="yes"/>
      <point x="642.0" y="772.0"/>
      <point x="807" y="565"/>
      <point x="807" y="428" type="qcurve" smooth="yes"/>
      <point x="807" y="237"/>
      <point x="511" y="-1"/>
      <point x="317" y="-1" type="qcurve" smooth="yes"/>
      <point x="192" y="-1"/>
      <point x="5.0" y="95.0"/>
    </contour>
    <contour>
      <point x="264" y="-155" type="line"/>
      <point x="298" y="19" type="line"/>
      <point x="300" y="19" type="line"/>
      <point x="336" y="19" type="line"/>
      <point x="340" y="19" type="line"/>
      <point x="308" y="-142" type="line"/>
    </contour>
    <contour>
      <point x="582" y="1589" type="line"/>
      <point x="625" y="1598" type="line"/>
      <point x="604" y="1490" type="line"/>
      <point x="600" y="1490" type="line"/>
      <point x="564" y="1490" type="line"/>
      <point x="562" y="1490" type="line"/>
    </contour>
  </outline>
</glyph>
<glyph name="four.lc" format="2">
  <advance width="1146"/>
  <outline>
    <contour>
      <point x="41" y="94" type="line"/>
      <point x="23" y="132" type="line"/>
      <point x="953" y="963" type="line"/>
      <point x="974" y="946" type="line"/>
      <point x="958" y="901" type="line"/>
      <point x="819" y="143" type="line"/>
      <point x="814" y="116" type="line"/>
      <point x="759" y="-204.0" type="line"/>
      <point x="759" y="-338" type="line"/>
      <point x="596" y="-396" type="line"/>
      <point x="575" y="-365" type="line"/>
      <point x="663" y="118" type="line"/>
      <point x="671" y="143" type="line"/>
      <point x="786" y="754" type="line"/>
      <point x="129" y="187" type="line"/>
      <point x="133" y="177" type="line"/>
      <point x="741" y="171" type="line"/>
      <point x="1092" y="171" type="line"/>
      <point x="1075" y="93" type="line"/>
      <point x="730" y="87" type="line"/>
    </contour>
  </outline>
</glyph>
<glyph name="gravecomb.case" format="2">
  <advance width="896"/>
  <outline>
    <contour>
      <point x="533" y="1753" type="line" smooth="yes"/>
      <point x="518" y="1767"/>
      <point x="502" y="1799"/>
      <point x="502" y="1814" type="qcurve" smooth="yes"/>
      <point x="502" y="1845"/>
      <point x="541" y="1887"/>
      <point x="577" y="1887" type="qcurve" smooth="yes"/>
      <point x="595" y="1887"/>
      <point x="632" y="1857"/>
      <point x="643" y="1832" type="qcurve" smooth="yes"/>
      <point x="747" y="1597" type="line"/>
      <point x="726" y="1580" type="line"/>
    </contour>
  </outline>
</glyph>
<glyph name="gravecombstack.case" format="2">
  <advance width="896"/>
  <outline>
    <contour>
      <point x="527" y="1791" type="qcurve" smooth="yes"/>
      <point x="527" y="1822"/>
      <point x="566" y="1864"/>
      <point x="602" y="1864" type="qcurve" smooth="yes"/>
      <point x="627" y="1864"/>
      <point x="660" y="1834"/>
      <point x="669" y="1809" type="qcurve" smooth="yes"/>
      <point x="747" y="1597" type="line"/>
      <point x="726" y="1580" type="line"/>
      <point x="559" y="1730" type="line" smooth="yes"/>
      <point x="543" y="1744"/>
      <point x="527" y="1776"/>
    </contour>
  </outline>
</glyph>
<glyph name="horncomb.case" format="2">
  <advance width="896"/>
  <outline>
    <contour>
      <point x="191" y="1483" type="line"/>
      <point x="241" y="1483"/>
      <point x="270" y="1483"/>
      <point x="299" y="1483" type="qcurve" smooth="yes"/>
      <point x="393" y="1483"/>
      <point x="471" y="1587"/>
      <point x="471" y="1708" type="qcurve" smooth="yes"/>
      <point x="471" y="1723"/>
      <point x="471" y="1754"/>
      <point x="471" y="1770" type="qcurve"/>
      <point x="513" y="1770" type="line"/>
      <point x="532" y="1732"/>
      <point x="550" y="1659"/>
      <point x="550" y="1627" type="qcurve" smooth="yes"/>
      <point x="550" y="1532"/>
      <point x="439" y="1421"/>
      <point x="322" y="1421" type="qcurve" smooth="yes"/>
      <point x="286" y="1421"/>
      <point x="206" y="1436"/>
      <point x="182" y="1446" type="qcurve"/>
    </contour>
  </outline>
</glyph>
<glyph name="horncomb" format="2">
  <advance width="896"/>
  <outline>
    <contour>
      <point x="80" y="926" type="line"/>
      <point x="130" y="926"/>
      <point x="119" y="926"/>
      <point x="148" y="926" type="qcurve" smooth="yes"/>
      <point x="242" y="926"/>
      <point x="320" y="1010"/>
      <point x="320" y="1121" type="qcurve" smooth="yes"/>
      <point x="320" y="1136"/>
      <point x="320" y="1167"/>
      <point x="320" y="1183" type="qcurve"/>
      <point x="362" y="1183" type="line"/>
      <point x="381" y="1145"/>
      <point x="399" y="1082"/>
      <point x="399" y="1050" type="qcurve" smooth="yes"/>
      <point x="399" y="965"/>
      <point x="298" y="864"/>
      <point x="201" y="864" type="qcurve" smooth="yes"/>
      <point x="165" y="864"/>
      <point x="95" y="879"/>
      <point x="71" y="889" type="qcurve"/>
    </contour>
  </outline>
</glyph>
<glyph name="macroncomb.case" format="2">
  <advance width="896"/>
  <outline>
    <contour>
      <point x="366" y="1653" type="line"/>
      <point x="386" y="1758" type="line"/>
      <point x="908" y="1758" type="line"/>
      <point x="888" y="1653" type="line"/>
    </contour>
  </outline>
</glyph>
<glyph name="seven.lf" format="2">
  <advance width="882"/>
  <outline>
    <contour>
      <point x="83" y="1184" type="line"/>
      <point x="210" y="1500" type="line"/>
      <point x="999" y="1500" type="line"/>
      <point x="1007" y="1464" type="line"/>
      <point x="781" y="1214"/>
      <point x="340" y="433"/>
      <point x="232" y="4" type="qcurve"/>
      <point x="116" y="-21" type="line"/>
      <point x="98" y="10" type="line"/>
      <point x="249" y="442"/>
      <point x="663" y="1097"/>
      <point x="849" y="1318" type="qcurve"/>
      <point x="837" y="1332" type="line"/>
      <point x="197" y="1332" type="line"/>
      <point x="102" y="1184" type="line"/>
    </contour>
  </outline>
</glyph>
<glyph name="six.lc" format="2">
  <advance width="1116"/>
  <outline>
    <contour>
      <point x="101" y="404.0" type="qcurve" smooth="yes"/>
      <point x="103" y="698.0"/>
      <point x="590" y="1242.0"/>
      <point x="1011" y="1364.0" type="qcurve"/>
      <point x="1025" y="1334.0" type="line"/>
      <point x="652" y="1215.0"/>
      <point x="257" y="682"/>
      <point x="257" y="383.0" type="qcurve" smooth="yes"/>
      <point x="257" y="209"/>
      <point x="396" y="21.0"/>
      <point x="523" y="21.0" type="qcurve" smooth="yes"/>
      <point x="689" y="21"/>
      <point x="868" y="244"/>
      <point x="868" y="436.0" type="qcurve" smooth="yes"/>
      <point x="868" y="541"/>
      <point x="752" y="680.0"/>
      <point x="634" y="680.0" type="qcurve" smooth="yes"/>
      <point x="581" y="680.0"/>
      <point x="482" y="648.0"/>
      <point x="442" y="625.0" type="qcurve"/>
      <point x="430" y="639.0" type="line"/>
      <point x="467" y="672.0"/>
      <point x="614" y="762.0"/>
      <point x="701" y="762.0" type="qcurve" smooth="yes"/>
      <point x="856" y="762.0"/>
      <point x="1028" y="587"/>
      <point x="1026" y="435.0" type="qcurve" smooth="yes"/>
      <point x="1024" y="246.0"/>
      <point x="738" y="-20"/>
      <point x="513" y="-20.0" type="qcurve" smooth="yes"/>
      <point x="301" y="-20.0"/>
      <point x="99" y="220.0"/>
    </contour>
  </outline>
</glyph>
<glyph name="six.lf" format="2">
  <advance width="1055"/>
  <outline>
    <contour>
      <point x="38" y="471" type="qcurve" smooth="yes"/>
      <point x="47" y="806"/>
      <point x="608" y="1434"/>
      <point x="998" y="1551" type="qcurve"/>
      <point x="1004" y="1530" type="line"/>
      <point x="702" y="1421"/>
      <point x="209" y="829"/>
      <point x="197" y="446" type="qcurve" smooth="yes"/>
      <point x="191" y="229"/>
      <point x="341" y="22"/>
      <point x="479" y="22" type="qcurve" smooth="yes"/>
      <point x="621" y="22"/>
      <point x="810" y="305"/>
      <point x="811" y="520" type="qcurve" smooth="yes"/>
      <point x="812" y="634"/>
      <point x="696" y="809"/>
      <point x="581" y="809" type="qcurve" smooth="yes"/>
      <point x="528" y="809"/>
      <point x="447" y="792"/>
      <point x="410" y="772" type="qcurve"/>
      <point x="394" y="786" type="line"/>
      <point x="443" y="814"/>
      <point x="620" y="886"/>
      <point x="647" y="886" type="qcurve" smooth="yes"/>
      <point x="800" y="886"/>
      <point x="985" y="676"/>
      <point x="980" y="519" type="qcurve" smooth="yes"/>
      <point x="973" y="293"/>
      <point x="670" y="-17"/>
      <point x="435" y="-17" type="qcurve" smooth="yes"/>
      <point x="235" y="-17"/>
      <point x="32" y="252"/>
    </contour>
  </outline>
</glyph>
<glyph name="two.lf" format="2">
  <advance width="911"/>
  <outline>
    <contour>
      <point x="-117" y="12" type="qcurve"/>
      <point x="-137" y="31" type="line"/>
      <point x="-3" y="160" type="line" smooth="yes"/>
      <point x="385" y="534"/>
      <point x="691" y="977"/>
      <point x="691" y="1188" type="qcurve" smooth="yes"/>
      <point x="691" y="1309"/>
      <point x="581" y="1416"/>
      <point x="464" y="1416" type="qcurve" smooth="yes"/>
      <point x="360" y="1416"/>
      <point x="181" y="1314"/>
      <point x="124" y="1247" type="qcurve"/>
      <point x="103" y="1258" type="line"/>
      <point x="170" y="1364"/>
      <point x="382" y="1523"/>
      <point x="546" y="1523" type="qcurve" smooth="yes"/>
      <point x="684" y="1523"/>
      <point x="862" y="1367"/>
      <point x="862" y="1226" type="qcurve" smooth="yes"/>
      <point x="862" y="1021"/>
      <point x="363" y="473"/>
      <point x="90" y="222" type="qcurve"/>
      <point x="89" y="221" type="line"/>
      <point x="145" y="223"/>
      <point x="200" y="224"/>
      <point x="256" y="226" type="qcurve"/>
      <point x="385" y="193"/>
      <point x="513" y="160"/>
      <point x="642" y="127" type="qcurve"/>
      <point x="723" y="258" type="line"/>
      <point x="741" y="250" type="line"/>
      <point x="630" y="-26" type="line"/>
      <point x="437" y="39"/>
      <point x="192" y="103"/>
      <point x="111" y="104" type="qcurve" smooth="yes"/>
      <point x="39" y="105"/>
      <point x="-65" y="58"/>
    </contour>
  </outline>
</glyph>
<glyph name="zero.lc" format="2">
  <advance width="1176"/>
  <outline>
    <contour>
      <point x="92" y="475.0" type="qcurve" smooth="yes"/>
      <point x="132" y="713"/>
      <point x="471" y="973"/>
      <point x="698" y="969.0" type="qcurve" smooth="yes"/>
      <point x="907" y="965"/>
      <point x="1138" y="695"/>
      <point x="1101" y="481.0" type="qcurve" smooth="yes"/>
      <point x="1058" y="233"/>
      <point x="706" y="-29"/>
      <point x="490" y="-20.0" type="qcurve" smooth="yes"/>
      <point x="278" y="-11"/>
      <point x="54" y="248"/>
    </contour>
    <contour>
      <point x="253" y="494.0" type="qcurve" smooth="yes"/>
      <point x="217" y="286"/>
      <point x="343" y="31"/>
      <point x="500" y="24.0" type="qcurve" smooth="yes"/>
      <point x="669" y="17"/>
      <point x="904" y="252"/>
      <point x="942.0" y="475.0" type="qcurve" smooth="yes"/>
      <point x="977" y="682"/>
      <point x="838" y="920"/>
      <point x="689" y="924.0" type="qcurve" smooth="yes"/>
      <point x="528" y="928"/>
      <point x="288" y="696"/>
    </contour>
  </outline>
</glyph>
